<svg xmlns="http://www.w3.org/2000/svg" xmlns:xlink="http://www.w3.org/1999/xlink" width="210" height="253" fill="none"><path d="M73.868 187.76c-23.412 0-41.42-6.753-54.025-20.258 47.03-.397 86.573-11.685 86.573-64.347V6.162c0-8.186 40.19-8.186 40.19 0V98.9c0 47.878-19.867 88.85-72.736 88.85z" fill="url(#A)"/><path d="M41.887 61.198V6.162C41.887-2.054 0-2.054 0 6.162v34.943c0 7.072 27.636 20.092 41.887 20.092z" fill="url(#A)"/><path d="M0 89.832c0 12.53.06 25.04 2.144 37.44 11.408 3.946 39.374 6.772 39.374-11.276S11.096 93.734 0 89.832z" fill="url(#A)"/><path d="M168.396 6.197v175.24c0 8.26 41.604 8.26 41.604 0V6.197c0-8.26-41.604-8.26-41.604 0z" fill="url(#A)"/><use xlink:href="#C" fill="url(#A)"/><path d="M38.582 252.31c-1.9 0-3.864-.338-5.888-1.012-1.993-.706-3.803-1.794-5.428-3.266l4.508-5.428c1.073.858 2.223 1.564 3.45 2.116 1.257.52 2.438.782 3.542.782 1.196 0 2.055-.184 2.576-.552a1.77 1.77 0 0 0 .828-1.564c0-.368-.092-.675-.276-.92s-.46-.476-.828-.7c-.337-.215-.75-.414-1.242-.598l-1.702-.7-3.726-1.564c-.797-.307-1.564-.706-2.3-1.196-.736-.522-1.38-1.12-1.932-1.794-.552-.706-.997-1.503-1.334-2.392-.307-.9-.46-1.87-.46-2.944a7.91 7.91 0 0 1 .828-3.588 8.92 8.92 0 0 1 2.3-2.944c.98-.86 2.147-1.534 3.496-2.024 1.38-.49 2.883-.736 4.508-.736 1.717 0 3.45.322 5.198.966a12.8 12.8 0 0 1 4.738 3.036l-3.956 4.968c-1.012-.706-1.993-1.242-2.944-1.6-.92-.368-1.932-.552-3.036-.552-.98 0-1.748.168-2.3.506s-.828.843-.828 1.518c0 .705.383 1.257 1.15 1.656l3.266 1.334 3.634 1.426c1.87.736 3.312 1.763 4.324 3.082s1.518 3.02 1.518 5.106a8.81 8.81 0 0 1-.782 3.634c-.52 1.165-1.288 2.192-2.3 3.082-.98.858-2.193 1.548-3.634 2.07s-3.097.782-4.968.782z" fill="url(#A)"/><path d="M61.7 252.31c-1.503 0-2.79-.215-3.864-.644-1.043-.46-1.917-1.104-2.622-1.932-.675-.828-1.18-1.8-1.518-2.944-.307-1.166-.46-2.454-.46-3.864v-8.004H50.2v-5.888l3.496-.276.92-5.98h6.532v5.98h5.244v6.164h-5.244v7.866c0 1.288.276 2.177.828 2.668.552.46 1.196.7 1.932.7.368 0 .72-.03 1.058-.092l.966-.276 1.196 5.704-2.208.552c-.86.184-1.932.276-3.22.276z" fill="url(#A)"/><use xlink:href="#C" x="67.184" fill="url(#B)"/><path d="M104.018 252.31c-1.442 0-2.745-.276-3.9-.828-1.135-.552-2.116-1.35-2.944-2.392-.797-1.043-1.426-2.3-1.886-3.772-.43-1.503-.644-3.2-.644-5.06s.26-3.558.782-5.06c.552-1.503 1.257-2.76 2.116-3.772.89-1.043 1.9-1.84 3.036-2.392s2.284-.828 3.45-.828c1.257 0 2.284.214 3.082.644.797.398 1.548.95 2.254 1.656l-.276-3.312v-7.452H117v32.016h-6.44l-.552-2.116h-.184a9.76 9.76 0 0 1-2.76 1.932c-1.012.5-2.024.736-3.036.736zm2.116-6.44c.613 0 1.15-.108 1.6-.322.46-.246.904-.7 1.334-1.334v-8.464c-.46-.43-.966-.72-1.518-.874a5.98 5.98 0 0 0-1.61-.23c-.828 0-1.58.414-2.254 1.242-.644.828-.966 2.254-.966 4.278 0 2.085.29 3.557.874 4.416.613.858 1.456 1.288 2.53 1.288z" fill="url(#A)"/><path d="M121.53 251.76v-23h7.912v23h-7.912zm3.956-25.852c-1.288 0-2.346-.368-3.174-1.104s-1.242-1.687-1.242-2.852.414-2.116 1.242-2.852 1.886-1.104 3.174-1.104 2.346.368 3.174 1.104 1.242 1.686 1.242 2.852-.414 2.116-1.242 2.852-1.886 1.104-3.174 1.104z" fill="url(#A)"/><path d="M144.193 252.31c-1.472 0-2.898-.26-4.278-.782-1.38-.552-2.606-1.334-3.68-2.346-1.042-1.043-1.886-2.316-2.53-3.818-.613-1.503-.92-3.205-.92-5.106s.307-3.604.92-5.106c.644-1.503 1.488-2.76 2.53-3.772 1.074-1.043 2.3-1.825 3.68-2.346 1.38-.552 2.806-.828 4.278-.828a11.07 11.07 0 0 1 4.232.828c1.38.52 2.592 1.303 3.634 2.346 1.074 1.012 1.932 2.27 2.576 3.772s.966 3.204.966 5.106-.322 3.603-.966 5.106-1.502 2.775-2.576 3.818c-1.042 1.012-2.254 1.794-3.634 2.346-1.35.52-2.76.782-4.232.782zm0-6.348c1.196 0 2.04-.506 2.53-1.518.522-1.043.782-2.438.782-4.186s-.26-3.128-.782-4.14c-.5-1.043-1.334-1.564-2.53-1.564s-2.054.52-2.576 1.564c-.5 1.012-.736 2.392-.736 4.14s.246 3.143.736 4.186c.522 1.012 1.38 1.518 2.576 1.518z" fill="url(#A)"/><path d="M180.21 252.31c-4.202 0-7.33-1.212-9.384-3.634-2.024-2.454-3.036-6.24-3.036-11.362V221.86h7.91v16.376c0 2.668.353 4.554 1.06 5.658.736 1.073 1.886 1.6 3.45 1.6s2.714-.537 3.45-1.6c.766-1.104 1.15-3 1.15-5.658V221.86h7.636v15.456c0 5.12-.997 8.908-3 11.362-1.994 2.422-5.076 3.634-9.246 3.634z" fill="url(#A)"/><path d="M198.08 251.76v-29.9h7.912v29.9h-7.912z" fill="url(#A)"/><defs><linearGradient id="A" x1="105" y1="0" x2="105" y2="252.311" gradientUnits="userSpaceOnUse"><stop stop-color="#1a81db"/><stop offset="1" stop-color="#1e96ff"/></linearGradient><linearGradient id="B" x1="37.816" y1="0" x2="37.816" y2="252.311" gradientUnits="userSpaceOnUse"><stop stop-color="#1a81db"/><stop offset="1" stop-color="#1e96ff"/></linearGradient><path id="C" d="M9.66 252.31c-1.257 0-2.346-.215-3.266-.644-.89-.46-1.625-1.09-2.208-1.886-.583-.828-1.012-1.8-1.288-2.944-.276-1.166-.414-2.47-.414-3.9V228.76h7.912v13.156c0 1.472.184 2.453.552 2.944s.95.736 1.748.736c.736 0 1.334-.154 1.794-.46.49-.307.997-.828 1.518-1.564V228.76h7.912v23h-6.44l-.552-3.036h-.184c-.92 1.104-1.947 1.978-3.082 2.622-1.104.644-2.438.966-4.002.966z"/></defs></svg>