<svg xmlns="http://www.w3.org/2000/svg" width="649" height="580" fill="currentColor"><path d="M228.554 579.983c-72.188 0-127.717-20.826-166.584-62.478 145.015-1.223 266.942-36.035 266.942-198.452V19.92c0-25.247 123.92-25.247 123.92 0v286.043c0 147.662-61.257 274.02-224.277 274.02zm-98.612-390.328V19.92c0-25.34-129.156-25.34-129.156 0V127.7c0 21.8 85.214 61.966 129.156 61.966z"/><path d="M.786 277.967c0 38.645.185 77.226 6.612 115.47 35.175 12.17 121.408 20.884 121.408-34.776S35 290 .786 277.967zM520.028 20.03v540.458c0 25.472 128.283 25.472 128.283 0V20.03c0-25.47-128.283-25.47-128.283 0z"/></svg>