<svg width="649" height="580" viewBox="0 0 649 580" fill="currentColor" xmlns="http://www.w3.org/2000/svg">
<path d="M228.554 579.983C156.366 579.983 100.837 559.157 61.9697 517.505C206.985 516.282 328.912 481.47 328.912 319.053V19.9203C328.912 -5.3268 452.831 -5.3268 452.831 19.9203V305.963C452.831 453.625 391.574 579.983 228.554 579.983Z"/>
<path d="M129.942 189.655V19.9203C129.942 -5.42037 0.786232 -5.4203 0.786255 19.9203V127.689C0.786255 149.5 86 189.655 129.942 189.655Z"/>
<path d="M0.786255 277.967C0.786255 316.612 0.971344 355.193 7.39815 393.436C42.5732 405.605 128.806 414.32 128.806 358.66C128.806 303 35 290 0.786255 277.967Z"/>
<path d="M520.028 20.0285L520.028 560.486C520.028 585.958 648.311 585.958 648.311 560.486L648.311 20.0285C648.311 -5.44291 520.028 -5.44292 520.028 20.0285Z"/>
</svg>
