<svg xmlns="http://www.w3.org/2000/svg" viewBox="0 0 512 512"><path d="M326.612 185.39c59.747 59.81 58.927 155.698.36 214.6-.1.12-.24.25-.36.37l-67.2 67.2c-59.27 59.27-155.7 59.262-214.96 0-59.27-59.26-59.27-155.7 0-214.96l37.106-37.106c9.84-9.84 26.786-3.3 27.294 10.606.648 17.722 3.826 35.527 9.7 52.72 1.986 5.822.567 12.262-3.783 16.612l-13.087 13.087c-28.026 28.026-28.905 73.66-1.155 101.96 28.024 28.58 74.086 28.75 102.325.5l67.2-67.2c28.19-28.19 28.073-73.757 0-101.83a74.91 74.91 0 0 0-10.341-8.569 16.037 16.037 0 0 1-6.947-12.606c-.396-10.567 3.348-21.456 11.698-29.806l21.054-21.055c5.52-5.52 14.182-6.2 20.584-1.73a152.482 152.482 0 0 1 20.522 17.197zM467.547 44.45c-59.26-59.262-155.7-59.27-214.96 0l-67.56 67.57c-58.566 58.892-59.387 154.78.36 214.6a152.454 152.454 0 0 0 20.521 17.196c6.402 4.468 15.064 3.79 20.584-1.73l21.054-21.055c8.35-8.35 12.094-19.24 11.698-29.806a16.037 16.037 0 0 0-6.947-12.606 74.91 74.91 0 0 1-10.341-8.569c-28.073-28.073-28.19-73.64 0-101.83l67.2-67.2c28.24-28.24 74.3-28.07 102.325.5 27.75 28.3 26.872 73.934-1.155 101.96l-13.087 13.087c-4.35 4.35-5.77 10.8-3.783 16.612 5.864 17.194 9.042 35 9.7 52.72.51 13.906 17.454 20.446 27.294 10.606l37.106-37.106c59.27-59.26 59.27-155.7.001-214.96z"/></svg>