<svg viewBox="0 0 8 7" xmlns="http://www.w3.org/2000/svg" fill="currentColor">
    <path d="M0.942378 1.19546C0.783284 1.03636 0.783284 0.778417 0.942378 0.619322C1.10147 0.460226 1.35941 0.460226 1.51851 0.619322L6.70368 5.80454C6.86277 5.96363 6.86277 6.22158 6.70368 6.38068C6.54458 6.53977 6.28664 6.53977 6.12755 6.38068L0.942378 1.19546Z" />
    <path d="M6.12749 0.619325C6.28658 0.460229 6.54452 0.460229 6.70362 0.619325C6.86271 0.77842 6.86271 1.03636 6.70362 1.19546L1.51845 6.38068C1.35935 6.53977 1.10141 6.53977 0.942318 6.38068C0.783225 6.22158 0.783225 5.96364 0.942318 5.80454L6.12749 0.619325Z"/>
    <path fill-rule="evenodd" clip-rule="evenodd" d="M0.942378 1.19546C0.783284 1.03636 0.783284 0.778417 0.942378 0.619322C1.10147 0.460226 1.35941 0.460226 1.51851 0.619322L3.82305 2.92384L6.12749 0.619325C6.28658 0.460229 6.54452 0.460229 6.70362 0.619325C6.86271 0.77842 6.86271 1.03636 6.70362 1.19546L4.39918 3.49997L6.70368 5.80454C6.86277 5.96363 6.86277 6.22158 6.70368 6.38068C6.54458 6.53977 6.28664 6.53977 6.12755 6.38068L3.82305 4.07611L1.51845 6.38068C1.35935 6.53977 1.10141 6.53977 0.942318 6.38068C0.783225 6.22158 0.783225 5.96364 0.942318 5.80454L3.24692 3.49997L0.942378 1.19546ZM2.96408 3.49997L0.801005 1.33688C0.563807 1.09968 0.563807 0.715104 0.801004 0.477904C1.0382 0.240703 1.42278 0.240703 1.65998 0.477904L3.82305 2.64099L5.98611 0.477907C6.22331 0.240706 6.60789 0.240706 6.84509 0.477907C7.08229 0.715107 7.08229 1.09968 6.84509 1.33688L4.68202 3.49997L6.84515 5.66312C7.08235 5.90032 7.08235 6.2849 6.84515 6.5221C6.60795 6.7593 6.22337 6.7593 5.98617 6.5221L3.82305 4.35895L1.65992 6.5221C1.42272 6.7593 1.03814 6.7593 0.800945 6.5221C0.563747 6.2849 0.563747 5.90033 0.800945 5.66313L2.96408 3.49997Z" />
</svg>
