<svg xmlns="http://www.w3.org/2000/svg" width="865.333" height="865.333" viewBox="0 0 649 649"><path d="M39.5 36.1C23 38 7.8 43.1 3.5 48.2l-2.5 3v114.5l2.8 3.9c15.8 21.8 77.9 49.8 119.5 53.9l6.7.7v-86.5c0-85.3 0-86.5-2-89-6.6-8.4-32.2-13.8-63.8-13.6-9.2.1-20.3.6-24.7 1zm327.7 0c-17.3 2-31.8 7-36.1 12.5l-2.1 2.7v154.6L328 374c-2.8 37-11.9 66.2-28.5 91.5-35.3 54-106 81.9-215.2 85.2-11.7.3-21.3.9-21.3 1.2 0 .9 12.6 13 18.5 17.8 12.1 9.8 30.2 20.3 46.1 26.6 31.7 12.8 66.7 18.4 107.4 17.4 29.2-.8 48.5-3.8 71.5-11.3 13.6-4.4 32.7-13.5 44.3-21 50.3-32.6 82.5-87.8 95.7-163.5 6.1-35.3 5.9-28.7 6.2-204.8.4-181.8 1.3-163.8-8-169.1-12.8-7.3-49.9-11.1-77.5-7.9zm192.6-.1c-17.5 2.1-30.8 6.3-36.3 11.4l-3.5 3.3v546.2l3 3.5c15.4 17.5 105 17.7 122.5.2l2.5-2.5V50.4l-2.7-2.6c-6.2-5.8-18.8-9.7-37.5-11.7-10.9-1.2-37.9-1.2-48-.1zM1 336.4c0 13.5.5 32.5 1.1 42.3 1 17.8 4.2 46.4 5.3 48.2 1.7 2.6 25.9 7.6 44.4 9.1 14.5 1.2 29.7.2 41.1-2.6 16.2-4 28.7-13.4 33-24.9 6.7-18 2.2-35.6-12.9-50.5-15.9-15.6-36.6-24.9-87-38.9l-23.2-6.6c-1.7-.7-1.8.9-1.8 23.9z"/></svg>